<svg width="686" height="172" viewBox="0 0 686 172" fill="none" xmlns="http://www.w3.org/2000/svg">
<g clip-path="url(#clip0_570_122)">
<path d="M154.743 34.3963H111.262C77.8771 34.3963 57.9744 19.5626 47.9546 8.83882C59.4106 3.17933 72.3121 0 85.9601 0C114.087 0 139.059 13.511 154.743 34.3963Z" fill="url(#paint0_radial_570_122)"/>
<path d="M53.4581 51.4789H7.19482C11.9095 40.7221 18.7642 31.118 27.2156 23.2051C32.8279 26.9466 45.3846 36.4846 53.4581 51.4789Z" fill="url(#paint1_radial_570_122)"/>
<path d="M171.92 85.9598C171.92 88.4825 171.811 90.9768 171.599 93.4476H134.41C83.39 93.4476 64.2573 71.7969 53.6281 51.795C53.5714 51.6911 53.5147 51.5824 53.458 51.4785H164.725C169.35 62.0322 171.92 73.696 171.92 85.9598V85.9598Z" fill="url(#paint2_radial_570_122)"/>
<path d="M80.2438 110.351H3.51002C1.22827 102.617 0 94.4303 0 85.9599C0 79.9461 0.618859 74.074 1.79516 68.4098H10.686C10.686 68.4098 55.0171 67.3091 80.2391 110.351H80.2438Z" fill="url(#paint3_radial_570_122)"/>
<path d="M168.41 110.351C163.586 126.687 154.034 141.001 141.341 151.701C127.154 149.821 98.7008 142.073 80.3948 110.61C80.3429 110.525 80.2956 110.436 80.2437 110.351H168.41V110.351Z" fill="url(#paint4_radial_570_122)"/>
<path d="M108.414 168.958C101.257 170.89 93.7263 171.92 85.9551 171.92C54.5492 171.92 27.0738 155.074 12.0747 129.927H36.0874C36.0874 129.927 81.061 126.724 108.409 168.958H108.414Z" fill="url(#paint5_radial_570_122)"/>
<path d="M154.743 34.3963H111.262C77.8771 34.3963 57.9744 19.5626 47.9546 8.83882C59.4106 3.17933 72.3121 0 85.9601 0C114.087 0 139.059 13.511 154.743 34.3963Z" fill="url(#paint6_radial_570_122)"/>
<path d="M53.4581 51.4789H7.19482C11.9095 40.7221 18.7642 31.118 27.2156 23.2051C32.8279 26.9466 45.3846 36.4846 53.4581 51.4789Z" fill="url(#paint7_radial_570_122)"/>
<path d="M80.2438 110.351H3.51002C1.22827 102.617 0 94.4303 0 85.9599C0 79.9461 0.618859 74.074 1.79516 68.4098H10.686C10.686 68.4098 55.0171 67.3091 80.2391 110.351H80.2438Z" fill="url(#paint8_radial_570_122)"/>
<path d="M108.414 168.958C101.257 170.89 93.7263 171.92 85.9551 171.92C54.5492 171.92 27.0738 155.074 12.0747 129.927H36.0874C36.0874 129.927 81.061 126.724 108.409 168.958H108.414Z" fill="url(#paint9_radial_570_122)"/>
<path d="M168.41 110.351C163.586 126.687 154.034 141.001 141.341 151.701C127.154 149.821 98.7008 142.073 80.3948 110.61C80.3429 110.525 80.2956 110.436 80.2437 110.351H168.41V110.351Z" fill="url(#paint10_radial_570_122)"/>
<path d="M171.92 85.9598C171.92 88.4825 171.811 90.9768 171.599 93.4476H134.41C83.39 93.4476 64.2573 71.7969 53.6281 51.795C53.5714 51.6911 53.5147 51.5824 53.458 51.4785H164.725C169.35 62.0322 171.92 73.696 171.92 85.9598V85.9598Z" fill="url(#paint11_radial_570_122)"/>
<path d="M215.344 39.522H233.938L263.752 114.21H244.411L238.426 98.8238H210.856L204.871 114.21H185.421L215.339 39.522H215.344ZM233.721 84.2924L224.636 59.1837L215.448 84.2924H233.721Z" fill="white"/>
<path d="M271.225 62.9252H289.39V68.0556C294.161 63.5677 300.217 61.3237 307.554 61.3237C312.897 61.3237 317.635 62.4481 321.764 64.6873C325.893 66.9313 329.101 70.1011 331.382 74.1969C333.659 78.2928 334.803 83.0499 334.803 88.4638C334.803 93.8776 333.664 98.5592 331.382 102.731C329.101 106.897 325.917 110.124 321.821 112.401C317.725 114.678 312.968 115.821 307.554 115.821C304.134 115.821 300.874 115.301 297.775 114.272C294.676 113.242 292.092 111.834 290.027 110.053V137.623H271.221V62.9252H271.225ZM311.938 97.7608C314.29 95.4838 315.462 92.3848 315.462 88.4638C315.462 84.5428 314.286 81.4626 311.938 79.2234C309.585 76.9794 306.486 75.8598 302.641 75.8598C299.792 75.8598 297.227 76.5921 294.945 78.0518C292.663 79.5116 291.029 81.491 290.032 83.9806V93.0651C291.029 95.5594 292.668 97.5341 294.945 98.9938C297.222 100.454 299.787 101.186 302.641 101.186C306.486 101.186 309.585 100.047 311.938 97.7656V97.7608Z" fill="white"/>
<path d="M346.396 110.525C343.155 107.001 341.535 102.173 341.535 96.0458V75.9589H334.269V62.925H341.535V47.5386H360.341V62.925H372.095V75.9589H360.341V93.4806C360.341 96.2584 360.856 98.252 361.891 99.4661C362.921 100.68 364.758 101.285 367.395 101.285C369.747 101.285 372.095 100.642 374.448 99.3621V113.36C372.596 114.215 370.616 114.838 368.519 115.23C366.417 115.623 363.833 115.816 360.771 115.816C354.432 115.816 349.641 114.054 346.401 110.525H346.396Z" fill="white"/>
<path d="M392.073 112.344C387.302 110.029 383.612 106.826 381.014 102.726C378.411 98.6299 377.112 93.9105 377.112 88.5675C377.112 83.2246 378.411 78.5052 381.014 74.4094C383.612 70.3136 387.302 67.1059 392.073 64.7911C396.844 62.4763 402.4 61.3188 408.744 61.3188C415.089 61.3188 420.64 62.4763 425.411 64.7911C430.183 67.1059 433.867 70.3136 436.47 74.4094C439.069 78.5052 440.372 83.2246 440.372 88.5675C440.372 93.9105 439.073 98.6299 436.47 102.726C433.867 106.822 430.183 110.029 425.411 112.344C420.64 114.659 415.08 115.816 408.744 115.816C402.409 115.816 396.844 114.659 392.073 112.344ZM417.772 97.8126C420.016 95.5687 421.136 92.4886 421.136 88.5723C421.136 84.656 420.012 81.5758 417.772 79.3319C415.533 77.0879 412.519 75.9683 408.744 75.9683C404.97 75.9683 401.961 77.0927 399.717 79.3319C397.473 81.5711 396.353 84.656 396.353 88.5723C396.353 92.4886 397.477 95.5687 399.717 97.8126C401.956 100.057 404.97 101.176 408.744 101.176C412.519 101.176 415.528 100.057 417.772 97.8126Z" fill="white"/>
<path d="M454.37 114.588C449.882 113.771 446.32 112.613 443.684 111.116V97.3309C446.604 99.0411 450.114 100.449 454.209 101.55C458.305 102.655 462.061 103.208 465.481 103.208C467.976 103.208 469.79 103.033 470.933 102.674C472.071 102.32 472.643 101.606 472.643 100.539C472.643 99.6836 472.27 98.9891 471.519 98.4553C470.767 97.9215 469.416 97.3498 467.461 96.7451C465.5 96.1405 463.242 95.4791 460.677 94.7705C456.331 93.4902 452.91 92.1722 450.421 90.8164C447.926 89.4653 446.075 87.7552 444.865 85.686C443.651 83.6216 443.046 81.0233 443.046 77.8865C443.046 72.3309 445.238 68.1831 449.618 65.4384C453.997 62.6985 460.001 61.3237 467.621 61.3237C471.325 61.3237 475.222 61.7158 479.323 62.5C483.419 63.2842 486.499 64.3188 488.563 65.5991V79.1714C486.428 77.7495 483.593 76.5732 480.069 75.6473C476.545 74.7213 473.248 74.2584 470.186 74.2584C467.763 74.2584 465.878 74.4898 464.522 74.9528C463.166 75.4158 462.491 76.2189 462.491 77.3574C462.491 78.425 463.166 79.247 464.522 79.8139C465.873 80.3855 468.297 81.0942 471.788 81.9492C474.065 82.5208 475.029 82.7712 474.674 82.6956C479.233 83.9097 482.757 85.2608 485.252 86.7584C487.746 88.2559 489.508 90.018 490.543 92.0494C491.572 94.0808 492.092 96.6601 492.092 99.7969C492.092 104.71 489.971 108.612 485.733 111.499C481.496 114.385 475.35 115.826 467.3 115.826C463.166 115.826 458.858 115.415 454.37 114.598V114.588Z" fill="white"/>
<path d="M498.895 39.522H531.808C540.5 39.522 547.445 41.8037 552.646 46.3625C557.842 50.9213 560.445 57.2988 560.445 65.4904C560.445 73.682 557.861 80.395 552.698 84.9916C547.534 89.5881 540.571 91.8841 531.808 91.8841H517.81V114.215H498.895V39.522V39.522ZM528.813 75.9591C532.587 75.9591 535.564 75.1749 537.737 73.6065C539.91 72.0428 540.996 69.3311 540.996 65.4857C540.996 61.6403 539.929 59.0042 537.789 57.5775C535.653 56.1556 532.658 55.4422 528.813 55.4422H517.806V75.9591H528.813V75.9591Z" fill="url(#paint12_linear_570_122)"/>
<path d="M564.768 111.168C560.814 108.069 558.839 103.742 558.839 98.1863C558.839 92.6308 560.743 87.9822 564.556 84.8832C568.363 81.7842 573.834 80.2347 580.958 80.2347C583.735 80.2347 586.513 80.537 589.291 81.1417C592.069 81.7464 594.455 82.5495 596.448 83.5463V82.4786C596.448 76.9939 591.96 74.2492 582.984 74.2492C576.715 74.2492 570.98 75.4633 565.779 77.8821V64.9522C568.056 63.8845 571.051 63.0106 574.755 62.335C578.459 61.6595 582.304 61.3193 586.296 61.3193C595.843 61.3193 603.052 63.2279 607.932 67.0355C612.812 70.8479 615.25 76.172 615.25 83.0078V114.211H597.62V109.831C595.697 111.683 593.273 113.143 590.354 114.211C587.434 115.278 584.085 115.812 580.31 115.812C573.9 115.812 568.717 114.262 564.763 111.163L564.768 111.168ZM592.069 102.939C593.992 102.051 595.451 100.893 596.448 99.4666V94.9787C593.382 92.9142 589.891 91.8796 585.975 91.8796C583.48 91.8796 581.558 92.4135 580.207 93.4811C578.851 94.5488 578.175 96.1172 578.175 98.1816C578.175 100.104 578.832 101.602 580.15 102.67C581.468 103.737 583.372 104.271 585.866 104.271C588.072 104.271 590.141 103.827 592.064 102.934L592.069 102.939Z" fill="url(#paint13_linear_570_122)"/>
<path d="M635.233 112.448C631.099 110.204 627.896 107.034 625.615 102.939C623.333 98.8428 622.194 94.0903 622.194 88.6718C622.194 83.2532 623.333 78.5763 625.615 74.4049C627.892 70.2383 631.08 67.0164 635.176 64.7347C639.272 62.4576 644.024 61.3144 649.443 61.3144C653.005 61.3144 656.284 61.8152 659.274 62.812C662.264 63.8087 664.829 65.2354 666.969 67.0873V35.2515H685.776V114.215H667.612V109.085C662.841 113.573 656.784 115.817 649.448 115.817C644.105 115.817 639.366 114.697 635.238 112.453L635.233 112.448ZM662.052 99.0932C664.329 97.6334 665.968 95.6587 666.965 93.1644V84.0799C665.968 81.5856 664.329 79.6109 662.052 78.1512C659.77 76.6914 657.205 75.9592 654.356 75.9592C650.511 75.9592 647.412 77.0977 645.059 79.3794C642.706 81.6612 641.535 84.7602 641.535 88.6765C641.535 92.5928 642.711 95.6729 645.059 97.9169C647.412 100.161 650.511 101.28 654.356 101.28C657.205 101.28 659.77 100.553 662.052 99.0884V99.0932Z" fill="url(#paint14_linear_570_122)"/>
</g>
<defs>
<radialGradient id="paint0_radial_570_122" cx="0" cy="0" r="1" gradientUnits="userSpaceOnUse" gradientTransform="translate(46.646 160.837) scale(161.541 161.541)">
<stop stop-color="#01EAB6"/>
<stop offset="1" stop-color="#0BBAE7"/>
</radialGradient>
<radialGradient id="paint1_radial_570_122" cx="0" cy="0" r="1" gradientUnits="userSpaceOnUse" gradientTransform="translate(0.236195 160.837) scale(161.541 161.541)">
<stop stop-color="#01EAB6"/>
<stop offset="1" stop-color="#0BBAE7"/>
</radialGradient>
<radialGradient id="paint2_radial_570_122" cx="0" cy="0" r="1" gradientUnits="userSpaceOnUse" gradientTransform="translate(0.236119 160.837) scale(161.541 161.541)">
<stop stop-color="#01EAB6"/>
<stop offset="1" stop-color="#0BBAE7"/>
</radialGradient>
<radialGradient id="paint3_radial_570_122" cx="0" cy="0" r="1" gradientUnits="userSpaceOnUse" gradientTransform="translate(0.236209 160.837) scale(161.541 161.541)">
<stop stop-color="#01EAB6"/>
<stop offset="1" stop-color="#0BBAE7"/>
</radialGradient>
<radialGradient id="paint4_radial_570_122" cx="0" cy="0" r="1" gradientUnits="userSpaceOnUse" gradientTransform="translate(46.6457 160.837) scale(161.541 161.541)">
<stop stop-color="#01EAB6"/>
<stop offset="1" stop-color="#0BBAE7"/>
</radialGradient>
<radialGradient id="paint5_radial_570_122" cx="0" cy="0" r="1" gradientUnits="userSpaceOnUse" gradientTransform="translate(46.6458 160.837) scale(161.541 161.541)">
<stop stop-color="#01EAB6"/>
<stop offset="1" stop-color="#0BBAE7"/>
</radialGradient>
<radialGradient id="paint6_radial_570_122" cx="0" cy="0" r="1" gradientUnits="userSpaceOnUse" gradientTransform="translate(46.646 160.837) scale(161.541 161.541)">
<stop stop-color="#01EAB6"/>
<stop offset="1" stop-color="#0BBAE7"/>
</radialGradient>
<radialGradient id="paint7_radial_570_122" cx="0" cy="0" r="1" gradientUnits="userSpaceOnUse" gradientTransform="translate(0.236195 160.837) scale(161.541 161.541)">
<stop stop-color="#01EAB6"/>
<stop offset="1" stop-color="#0BBAE7"/>
</radialGradient>
<radialGradient id="paint8_radial_570_122" cx="0" cy="0" r="1" gradientUnits="userSpaceOnUse" gradientTransform="translate(0.236209 160.837) scale(161.541 161.541)">
<stop stop-color="#01EAB6"/>
<stop offset="1" stop-color="#0BBAE7"/>
</radialGradient>
<radialGradient id="paint9_radial_570_122" cx="0" cy="0" r="1" gradientUnits="userSpaceOnUse" gradientTransform="translate(46.6458 160.837) scale(161.541 161.541)">
<stop stop-color="#01EAB6"/>
<stop offset="1" stop-color="#0BBAE7"/>
</radialGradient>
<radialGradient id="paint10_radial_570_122" cx="0" cy="0" r="1" gradientUnits="userSpaceOnUse" gradientTransform="translate(46.6457 160.837) scale(161.541 161.541)">
<stop stop-color="#01EAB6"/>
<stop offset="1" stop-color="#0BBAE7"/>
</radialGradient>
<radialGradient id="paint11_radial_570_122" cx="0" cy="0" r="1" gradientUnits="userSpaceOnUse" gradientTransform="translate(0.236119 160.837) scale(161.541 161.541)">
<stop stop-color="#01EAB6"/>
<stop offset="1" stop-color="#0BBAE7"/>
</radialGradient>
<linearGradient id="paint12_linear_570_122" x1="529.668" y1="126.323" x2="529.668" y2="30.5745" gradientUnits="userSpaceOnUse">
<stop stop-color="#01EAB6"/>
<stop offset="1" stop-color="#0BBAE7"/>
</linearGradient>
<linearGradient id="paint13_linear_570_122" x1="587.047" y1="126.323" x2="587.047" y2="30.5748" gradientUnits="userSpaceOnUse">
<stop stop-color="#01EAB6"/>
<stop offset="1" stop-color="#0BBAE7"/>
</linearGradient>
<linearGradient id="paint14_linear_570_122" x1="653.988" y1="126.323" x2="653.988" y2="30.5746" gradientUnits="userSpaceOnUse">
<stop stop-color="#01EAB6"/>
<stop offset="1" stop-color="#0BBAE7"/>
</linearGradient>
<clipPath id="clip0_570_122">
<rect width="685.776" height="171.92" fill="white"/>
</clipPath>
</defs>
</svg>
