<svg xmlns:xlink="http://www.w3.org/1999/xlink" xmlns="http://www.w3.org/2000/svg" class="socials__icon" width="30" height="24">
  <defs>
    <symbol id="discord" viewBox="0 0 30 24">
      <path d="M25.396 2.615A24.995 24.995 0 0 0 19.29.753a.094.094 0 0 0-.099.045 17.021 17.021 0 0 0-.76 1.537 23.207 23.207 0 0 0-6.859 0 15.451 15.451 0 0 0-.77-1.537.096.096 0 0 0-.1-.048c-2.142.363-4.192 1-6.106 1.864a.087.087 0 0 0-.04.034C.666 8.366-.4 13.944.124 19.45a.1.1 0 0 0 .038.07 25.038 25.038 0 0 0 7.492 3.724.097.097 0 0 0 .105-.032 17.288 17.288 0 0 0 1.532-2.454.093.093 0 0 0-.051-.13A16.507 16.507 0 0 1 6.9 19.53a.094.094 0 0 1-.039-.12.094.094 0 0 1 .029-.036c.157-.116.315-.237.465-.358a.094.094 0 0 1 .097-.013c4.91 2.205 10.225 2.205 15.077 0a.093.093 0 0 1 .098.011c.15.123.307.244.465.36a.094.094 0 0 1 .025.124.094.094 0 0 1-.032.033 15.51 15.51 0 0 1-2.341 1.096.094.094 0 0 0-.052.131c.45.859.965 1.676 1.532 2.453a.097.097 0 0 0 .105.035 24.93 24.93 0 0 0 7.502-3.727.095.095 0 0 0 .04-.067c.625-6.368-1.047-11.9-4.436-16.803a.075.075 0 0 0-.039-.035ZM10.025 16.098c-1.478 0-2.696-1.336-2.696-2.975 0-1.64 1.195-2.975 2.696-2.975 1.512 0 2.72 1.346 2.696 2.975 0 1.64-1.195 2.975-2.696 2.975Zm9.969 0c-1.48 0-2.697-1.336-2.697-2.975 0-1.64 1.194-2.975 2.697-2.975 1.512 0 2.72 1.346 2.696 2.975 0 1.64-1.183 2.975-2.696 2.975Z"></path>
    </symbol>
  </defs>
  <use xlink:href="#discord" stroke="currentColor" fill="currentColor"></use>
</svg>