<svg width="59" height="52" viewBox="0 0 59 52" fill="none" xmlns="http://www.w3.org/2000/svg">
<path d="M54.6401 8.56994C56.1901 8.29994 57.4201 8.07994 58.6501 7.86994C53.2701 11.8999 54.2101 18.0799 52.9501 23.4999C47.4401 47.0799 20.4101 58.8499 0.580078 46.5199C5.62008 45.0499 10.7801 43.5499 16.1401 41.9899C12.0201 38.7699 8.64007 36.1299 4.20007 32.6699C6.89007 31.9299 7.90008 31.6499 9.26008 31.2699C4.82008 28.4599 1.05007 25.3499 1.13007 19.4299C2.35007 19.4799 3.40007 19.5299 5.09007 19.6099C1.31007 14.6299 -0.50992 9.76994 2.73008 3.83994C9.89008 10.9699 17.9101 15.8999 28.0401 16.4999C28.6401 13.6999 28.8201 10.8799 29.8501 8.41994C32.3901 2.34994 39.7501 -0.940059 45.6701 2.07994C49.8201 4.18994 53.4301 5.07994 58.7401 2.18994C56.9101 5.02994 55.8901 6.61994 54.6401 8.56994Z" fill="#4BE2BD"/>
</svg>
