<svg width="67" height="50" viewBox="0 0 67 50" fill="none" xmlns="http://www.w3.org/2000/svg">
<path d="M59.5202 8.98977C57.2702 4.69977 53.9202 2.67977 49.5702 1.57977C46.3102 0.749773 42.9802 -1.12023 40.5202 3.18977C40.2202 3.69977 38.3302 3.32977 37.1802 3.31977C34.3602 3.30977 31.5402 3.32977 28.7202 3.18977C27.6802 3.13977 26.6502 2.67977 25.6102 2.40977C23.6202 1.89977 21.5502 0.769773 19.6502 1.00977C13.0702 1.84977 8.29017 5.34977 6.15017 11.8498C4.34017 17.3498 2.10018 22.8098 1.10018 28.4698C-1.09982 40.8198 0.770167 43.4098 12.1802 48.5398C16.7302 50.5898 19.3102 49.7398 20.7302 44.6898C19.3502 43.8198 17.9102 42.9198 16.4702 42.0298C27.9302 45.9398 39.1902 45.4998 50.6202 42.2098C49.2302 42.9798 47.8402 43.7498 46.3402 44.5798C47.8102 50.3398 50.9302 50.6598 55.0802 48.3498C57.5502 46.9698 60.0602 45.6798 62.6002 44.4298C65.6402 42.9398 66.8102 40.6298 66.7402 37.2098C66.5202 27.2198 64.2102 17.8798 59.5202 8.98977ZM22.6002 34.2598C19.4902 34.4898 16.5802 31.0098 16.8202 27.4698C17.0702 23.9198 18.7902 21.4398 22.6102 21.2498C25.8402 21.0898 28.6402 24.4298 28.5102 28.1698C27.9802 31.4198 26.3502 33.9798 22.6002 34.2598ZM44.5302 34.2798C40.8602 33.9598 38.9602 31.6598 38.7502 28.0098C38.5402 24.2798 41.1202 21.3298 44.5202 21.3198C47.7502 21.3098 50.2602 23.9598 50.3702 27.4998C50.4802 31.0098 47.6102 34.5498 44.5302 34.2798Z" fill="#4BE2BD"/>
</svg>
