<svg width="53" height="54" viewBox="0 0 53 54" fill="none" xmlns="http://www.w3.org/2000/svg">
<path d="M49.9901 38.7902C48.2101 42.5702 45.7101 45.8002 42.4801 48.4602C39.6501 50.7802 36.4601 52.4502 32.9101 53.3902C32.8001 53.4202 32.6801 53.4402 32.5301 53.4702V52.8302C32.5301 49.6002 32.5001 46.3702 32.5401 43.1502C32.5701 41.3702 32.1701 39.7702 31.0001 38.4002C30.8701 38.2502 30.7701 38.0802 30.6901 37.9602C32.0601 37.5502 33.4301 37.2602 34.7201 36.7402C38.8201 35.1202 41.2201 32.0702 41.9201 27.7202C42.3301 25.1302 41.7301 22.7002 40.4301 20.4402C40.0801 19.8402 39.5101 19.2902 39.3801 18.6502C39.2501 18.0202 39.5701 17.3002 39.6501 16.6102C39.8501 14.9502 39.5601 13.3602 38.9901 11.8402C36.7601 11.8102 34.9601 12.8902 33.1801 13.9702C32.4801 14.3902 31.8701 14.4802 31.0701 14.2802C27.7801 13.4502 24.4801 13.5202 21.1901 14.3802C20.7401 14.5002 20.3701 14.4502 19.9901 14.1902C19.4501 13.8402 18.8901 13.5002 18.3101 13.2102C17.6001 12.8502 16.8801 12.4602 16.1301 12.2102C15.3901 11.9702 14.6001 11.9002 13.8101 11.7502C13.1901 13.3202 12.9101 14.9002 13.0901 16.5402C13.1501 17.0602 13.2501 17.5902 13.3901 18.0902C13.4901 18.4602 13.4301 18.7302 13.2001 19.0302C10.7601 22.3602 10.1701 26.0402 11.4001 29.9502C12.4501 33.2702 14.7901 35.4702 17.9901 36.7202C19.2801 37.2302 20.6601 37.5402 22.0501 37.9502C21.9901 38.0402 21.8901 38.2002 21.7801 38.3502C21.1201 39.2302 20.5401 40.1502 20.3801 41.2702C20.3601 41.4002 20.2001 41.5502 20.0701 41.6002C18.4101 42.2402 16.9501 41.8002 15.9601 40.3102C15.1201 39.0502 14.2101 37.8602 12.8301 37.1502C12.0001 36.7202 11.1201 36.4902 10.1201 36.5802C10.2101 37.6002 10.3001 38.5902 10.3901 39.6002C11.4801 39.6502 12.1501 40.3202 12.7501 41.0902C13.3401 41.8402 13.8501 42.6702 14.5301 43.3302C15.9401 44.6902 17.6901 45.1602 19.6301 44.8802C19.8101 44.8502 20.0001 44.8402 20.2001 44.8202V53.4702C19.5701 53.2902 18.9501 53.1402 18.3501 52.9302C14.5901 51.6402 11.3001 49.6002 8.47012 46.8202C5.42012 43.8302 3.19011 40.3102 1.74011 36.3002C0.890112 33.9502 0.370123 31.5202 0.220123 29.0102C0.210123 28.8302 0.160137 28.6402 0.140137 28.4602V25.6902C0.180137 25.3402 0.230132 24.9802 0.260132 24.6302C0.720132 20.3102 2.11013 16.3102 4.57013 12.7202C8.78013 6.57023 14.5501 2.74023 21.9101 1.39023C22.8801 1.21023 23.8601 1.12023 24.8401 0.990234H27.9101C28.8901 1.12023 29.8701 1.22023 30.8401 1.39023C38.2001 2.74023 43.9701 6.57023 48.1801 12.7202C50.6401 16.3102 52.0601 20.3102 52.4801 24.6302C52.9601 29.5602 52.0901 34.2802 49.9801 38.7702L49.9901 38.7902Z" fill="#4BE2BD"/>
</svg>
