<svg width="54" height="53" viewBox="0 0 54 53" fill="none" xmlns="http://www.w3.org/2000/svg">
<path d="M39.7799 0H14.0799C6.68993 0 0.689941 6 0.689941 13.39V39.09C0.689941 46.48 6.68993 52.48 14.0799 52.48H39.7799C47.1699 52.48 53.17 46.48 53.17 39.09V13.39C53.17 6 47.1699 0 39.7799 0ZM18.7 38.06C12.76 38.07 7.91994 33.23 7.90994 27.24C7.88994 21.24 12.69 16.39 18.67 16.36C24.61 16.33 29.4699 21.2 29.4799 27.2C29.49 33.19 24.66 38.05 18.7 38.06ZM39.7899 34.31C39.3999 35.09 38.91 35.81 38.2599 36.41C36.7899 37.78 34.9899 37.77 33.5299 36.38C32.4399 35.33 31.7699 34.03 31.3499 32.61C30.1099 28.51 30.1799 24.45 31.8699 20.47C32.2599 19.54 32.8099 18.72 33.5499 18.02C35.0199 16.65 36.8199 16.64 38.2799 18.03C39.4999 19.18 40.1499 20.65 40.6199 22.22C41.0999 23.85 41.3099 25.53 41.2999 27.23C41.2799 29.69 40.8999 32.08 39.7899 34.31ZM46.1499 29C46.0699 29.83 46.0499 30.66 45.9099 31.48C45.7099 32.72 45.45 33.94 45.17 35.16C45.1 35.49 44.9 35.81 44.7 36.08C44.42 36.48 43.9999 36.49 43.7699 36.05C43.4599 35.44 43.1799 34.78 43.0199 34.12C42.3999 31.45 42.2999 28.73 42.3699 26C42.4199 24.08 42.5599 22.17 43.0199 20.3C43.1599 19.7 43.37 19.11 43.64 18.56C43.98 17.88 44.4799 17.89 44.8599 18.55C45.3499 19.4 45.5599 20.36 45.6899 21.32C45.8599 22.53 45.9499 23.76 46.0799 24.98C46.0999 25.13 46.1299 25.27 46.1499 25.42V29Z" fill="#4BE2BD"/>
</svg>
