<svg width="54" height="54" viewBox="0 0 54 54" fill="none" xmlns="http://www.w3.org/2000/svg">
<path d="M53.6201 25.5599V27.9699C53.4901 29.1099 53.4101 30.2599 53.2101 31.3799C52.2401 36.8799 49.7901 41.6299 45.8701 45.6099C42.4101 49.1199 38.2801 51.4799 33.5101 52.7299C33.4101 52.7499 33.3101 52.7699 33.1201 52.8099C33.3901 51.9399 33.3901 51.0799 34.3301 50.5499C35.5301 49.8799 36.6401 49.0499 37.7701 48.2599C38.0201 48.0799 38.2301 47.7999 38.3501 47.5099C38.6801 46.7199 38.9301 45.8999 39.2601 45.1199C39.3601 44.8899 39.5601 44.6499 39.7801 44.5399C40.5901 44.1299 41.4201 43.7699 42.2401 43.3799C42.4001 43.2999 42.5901 43.1799 42.6701 43.0299C43.6401 41.1999 44.6001 39.3599 45.5801 37.4999C45.4401 37.3999 45.3201 37.3099 45.1801 37.2299C44.6701 36.9299 44.1701 36.5899 43.6401 36.3299C41.7101 35.3899 40.1201 34.0499 38.8101 32.3499C38.6501 32.1399 38.3101 32.0099 38.0301 31.9399C37.3001 31.7599 36.5701 31.6299 35.8301 31.4799C34.5701 31.2199 33.3201 30.8999 32.0401 30.7199C31.5401 30.6499 30.9701 30.8499 30.4801 31.0399C29.8701 31.2599 29.4301 31.2199 29.0701 30.6399C28.6101 29.8899 27.8901 29.5399 27.0001 29.4299C27.0301 28.7499 27.0701 28.1199 27.1001 27.4899C26.0501 27.2899 25.1901 27.4599 24.6401 28.5999C24.4401 27.7399 24.2701 27.0599 24.1001 26.3299C24.7501 26.0199 25.3701 25.7099 26.0101 25.4299C26.1301 25.3799 26.3201 25.4099 26.4501 25.4699C26.9501 25.6799 27.4201 25.9699 27.9301 26.1299C28.3501 26.2599 28.8101 26.2799 29.2501 26.3099C29.3401 26.3099 29.5101 26.1599 29.5201 26.0799C29.6301 24.6799 30.6401 23.8199 31.4001 22.7899C32.4501 21.3599 33.7901 20.3999 35.3601 19.5899C36.8801 18.8099 38.3401 18.2799 39.9801 18.9199C40.4601 17.9899 40.4201 17.6899 39.8001 17.0499C39.4501 16.6899 39.1101 16.2999 38.7301 15.9699C37.6001 14.9799 36.7201 13.7999 36.1801 12.3899C36.0501 12.0399 35.8401 11.9099 35.4701 11.9499C34.6701 12.0399 33.9801 11.7899 33.2401 11.4399C32.5101 11.0999 31.6301 11.0899 30.7701 10.9299C30.5901 11.8999 30.4301 12.7999 30.2601 13.7499C29.3601 13.5799 28.4901 13.4299 27.6201 13.2399C27.5101 13.2199 27.3801 12.9999 27.3701 12.8599C27.3301 12.3899 27.1701 11.8199 27.3701 11.4699C27.5201 11.2099 28.1601 11.1999 28.5901 11.1499C29.2001 11.0799 29.4801 10.7999 29.5701 10.1799C29.6801 9.40988 29.9101 8.64988 30.1001 7.81988C30.7901 8.09988 31.4701 8.35988 32.1201 8.66988C32.2301 8.71988 32.2801 9.03988 32.2501 9.21988C32.1201 9.86988 32.3601 10.2299 33.0001 10.3799C33.2301 10.4299 33.4601 10.5399 33.6801 10.6599C34.6101 11.1499 35.4701 11.0699 36.3001 10.2999C35.8601 9.78988 35.4201 9.25988 34.9401 8.75988C34.4001 8.18988 33.8601 7.60988 33.2501 7.11988C32.6801 6.64988 32.5801 6.11988 32.7701 5.37988C33.8301 5.72988 34.9401 5.62988 35.9401 6.43988C37.2601 7.51988 37.9101 8.86988 38.3201 10.4199C38.4401 10.8799 38.6601 11.2299 39.0201 11.5399C39.8201 12.2199 40.5601 12.9499 41.3701 13.6299C41.7701 13.9699 42.2401 14.2199 42.7301 14.5299C43.1101 13.9199 43.4501 13.4399 43.7401 12.9199C43.9201 12.5999 44.1501 12.4599 44.5201 12.4299C45.7001 12.3499 46.8801 12.2299 48.0701 12.1199C48.1601 12.1199 48.2501 12.1099 48.3301 12.0899C48.8701 11.9765 49.2868 12.1599 49.5801 12.6399C51.9401 16.4299 53.2601 20.5499 53.5601 24.9999C53.5701 25.1699 53.6101 25.3399 53.6401 25.5099L53.6201 25.5599Z" fill="#4BE2BD"/>
<path d="M31.4199 0.42C30.4499 0.25 29.4599 0.14 28.4799 0H25.1299C24.2399 0.12 23.3399 0.21 22.4399 0.36C17.4399 1.2 12.9999 3.28 9.18994 6.62C8.13994 7.54 7.18994 8.58 6.18994 9.57C6.21994 9.61 6.25994 9.66 6.28994 9.7C6.44994 9.66 6.61994 9.61 6.77994 9.56C8.64994 8.99 10.5299 8.45 12.4799 8.3C13.9099 8.19 15.2699 7.89 16.4499 7.03C16.7699 6.8 17.0799 6.82 17.4299 6.93C18.1299 7.14 18.8399 7.42 19.5499 7.45C20.6799 7.5 21.8199 7.38 22.9499 7.29C23.1499 7.27 23.3999 7.11 23.5199 6.94C23.8699 6.46 24.1499 5.93 24.4999 5.45C24.5999 5.31 24.8499 5.21 25.0299 5.22C25.7199 5.26 26.4199 5.44 27.0999 5.41C28.4399 5.34 29.7799 5.18 31.1099 5.03C31.3099 5.01 31.5199 4.88 31.6799 4.74C32.1899 4.27 32.6699 3.77 33.1799 3.29C34.0999 2.4 35.1599 2.22 36.3899 2.57C36.8999 2.72 37.4699 2.64 38.0099 2.67C38.0099 2.61 38.0099 2.56 38.0199 2.5C35.9099 1.51 33.7099 0.82 31.4199 0.42ZM19.9299 5.31C19.8299 5.33 19.6999 5.26 19.5999 5.2C19.1199 4.93 18.6399 4.64 18.1199 4.33C18.7399 3.85 19.3099 3.42 19.9199 2.95C19.8999 2.95 19.9599 2.93 19.9999 2.95C20.7299 3.43 21.4699 3.37 22.2199 3.02C22.5499 2.86 22.7199 2.98 22.8699 3.28C23.0499 3.64 23.2599 3.97 23.4999 4.38C22.2899 4.7 21.1199 5.01 19.9499 5.31H19.9299ZM29.9199 4.04C29.5099 4.28 28.8999 4.17 28.3899 4.28C27.6199 4.44 26.9999 4.2 26.3899 3.58C27.7699 2.8 29.1199 2.04 30.4599 1.28C30.5599 1.22 30.7399 1.21 30.8399 1.26C31.3599 1.53 31.8599 1.84 32.4299 2.17C31.5599 2.83 30.7899 3.51 29.9199 4.03V4.04Z" fill="#4BE2BD"/>
<path d="M31.0201 45.5102C30.7801 46.5502 30.5901 47.6002 30.2501 48.6002C29.8001 49.9302 29.9601 51.2502 30.0901 52.5802C30.1101 52.8302 30.1301 53.0902 30.1501 53.3602C27.7901 53.7002 25.4801 53.7202 23.1701 53.3602C14.3801 52.0002 7.73009 47.4702 3.34009 39.7402C0.570087 34.8702 -0.429913 29.5702 0.170087 23.9702C0.550087 20.3502 1.66009 16.9602 3.41009 13.7802C3.61009 13.4202 3.83009 13.2302 4.24009 13.1702C4.62009 13.1202 4.99009 13.0002 5.36009 12.9102C5.38009 12.9102 5.39009 12.9102 5.50009 12.9402C4.89009 13.4302 4.32009 13.8902 3.71009 14.3702C4.49009 14.9302 5.18009 15.4102 6.21009 15.4202C8.19009 15.4402 10.0901 15.0402 12.0101 14.6802C12.5101 14.5902 12.7801 14.6802 13.0501 15.1402C13.7601 16.3802 14.5401 17.5802 15.2701 18.8102C15.4001 19.0302 15.4901 19.3202 15.4901 19.5802C15.5101 20.7102 15.4901 21.8502 15.5101 22.9802C15.5101 23.2502 15.6101 23.5602 15.7701 23.7802C16.8501 25.2802 17.9601 26.7602 19.0501 28.2602C19.2901 28.5902 19.5301 28.7402 20.0101 28.5802V27.0502C20.0101 27.0502 20.0701 27.0402 20.1001 27.0302C20.5001 27.8602 20.8701 28.6902 21.3001 29.5002C21.4101 29.7102 21.6701 29.9202 21.8901 29.9802C23.0601 30.2802 24.2401 30.5002 25.4001 30.8002C25.7201 30.8802 26.0501 31.0502 26.2801 31.2802C27.2701 32.2302 28.1001 33.3902 29.7801 33.3502C29.3101 34.3302 28.9801 35.2002 28.5001 35.9802C27.9601 36.8402 28.0101 37.5702 28.5701 38.3902C29.9101 40.3502 30.4601 42.6402 31.0501 44.9002C31.1001 45.0902 31.0701 45.3202 31.0301 45.5102H31.0201Z" fill="#4BE2BD"/>
</svg>
